#!OML:ASF H:\Dans Jumps\Project 1\Capture day 1\Session 1\subject.ASF
:FULLY-SPECIFIED
:DEGREES
501
root 0.0883939 17.573 9.26756 9.94995 -3.29487 -1.43295
lowerback 5.10966 -1.04805 -0.27041
upperback 2.35038 -1.39044 2.04994
thorax -0.390463 -0.70773 2.33083
lowerneck -14.405 1.70333 -0.752038
upperneck 17.5797 2.50264 -0.0148731
head 7.79256 1.13374 0.389824
rclavicle -1.92821e-014 1.19271e-015
rhumerus -28.6599 -24.1998 -76.6686
rradius 18.616
rwrist 48.394
rhand -20.9366 -26.4197
rfingers 7.12502
rthumb 5.43555 -56.33
lclavicle -1.92821e-014 1.19271e-015
lhumerus -13.6604 -1.83559 89.6445
lradius 17.8362
lwrist 4.84945
lhand -27.474 -9.58578
lfingers 7.12502
lthumb -0.877854 20.3922
rfemur -24.9152 0.0257343 20.038
rtibia 27.7603
rfoot -11.7711 -2.14868
rtoes 4.49834
lfemur -25.0958 9.34871 -19.9395
ltibia 25.1808
lfoot -8.21141 3.37257
ltoes -9.84699
502
root 0.0873315 17.5813 9.30299 9.91352 -3.26112 -1.46137
lowerback 4.94794 -1.03961 -0.253016
upperback 2.3144 -1.37922 2.0703
thorax -0.337761 -0.702242 2.33826
lowerneck -14.4052 1.67852 -0.770512
upperneck 17.5301 2.46983 -0.00103923
head 7.77591 1.11876 0.393522
rclavicle 2.16675e-014 -3.77691e-015
rhumerus -28.4273 -24.0168 -76.8447
rradius 18.6773
rwrist 48.1905
rhand -20.9777 -26.4701
rfingers 7.12502
rthumb 5.39587 -56.3814
lclavicle 2.16675e-014 -3.77691e-015
lhumerus -13.8258 -1.98051 89.8359
lradius 17.842
lwrist 4.54835
lhand -27.4252 -9.4979
lfingers 7.12502
lthumb -0.830782 20.4802
rfemur -24.5842 0.0391484 20.0603
rtibia 27.4839
rfoot -11.7767 -2.18476
rtoes 4.53085
lfemur -24.7917 9.32252 -19.8823
ltibia 24.9478
lfoot -8.22541 3.41715
ltoes -9.91128
503
root 0.086202 17.5894 9.33847 9.88233 -3.2308 -1.47689
lowerback 4.77689 -1.03069 -0.249672
upperback 2.2752 -1.3681 2.08762
thorax -0.282864 -0.696874 2.35035
lowerneck -14.4064 1.66035 -0.77053
upperneck 17.4807 2.44582 -0.00673024
head 7.75996 1.10728 0.38872
rclavicle -1.51076e-014 2.72335e-014
rhumerus -28.1809 -23.8634 -77.0129
rradius 18.7291
rwrist 48.0223
rhand -21.035 -26.5354
rfingers 7.12502
rthumb 5.3406 -56.4481
lclavicle -1.51076e-014 2.72335e-014
lhumerus -14.0036 -2.16067 90.0344
lradius 17.8633
lwrist 4.3194
lhand -27.3221 -9.32911
lfingers 7.12502
lthumb -0.731134 20.6494
rfemur -24.2638 0.0488273 20.0684
rtibia 27.2147
rfoot -11.786 -2.21375
rtoes 4.57662
lfemur -24.4976 9.28892 -19.8395
ltibia 24.7243
lfoot -8.24244 3.47075
ltoes -9.96523
504
root 0.0847845 17.5969 9.37325 9.85657 -3.2014 -1.5008
lowerback 4.60527 -1.02034 -0.240444
upperback 2.23212 -1.35478 2.10759
thorax -0.231768 -0.690329 2.36186
lowerneck -14.3995 1.642 -0.768083
upperneck 17.4227 2.42162 -0.0163031
head 7.73985 1.09557 0.382077
rclavicle -1.66979e-014 9.14409e-015
rhumerus -27.9229 -23.7297 -77.1775
rradius 18.7779
rwrist 47.871
rhand -21.1192 -26.6145
rfingers 7.12502
rthumb 5.25924 -56.5293
lclavicle -1.66979e-014 9.14409e-015
lhumerus -14.1984 -2.38268 90.2426
lradius 17.9076
lwrist 4.17404
lhand -27.1768 -9.07323
lfingers 7.12502
lthumb -0.590828 20.9057
rfemur -23.9551 0.0661144 20.0868
rtibia 26.9517
rfoot -11.794 -2.24747
rtoes 4.61918
lfemur -24.2181 9.24843 -19.7854
ltibia 24.5122
lfoot -8.2573 3.53054
ltoes -10.0129
505
root 0.0831721 17.604 9.40736 9.83389 -3.17397 -1.52535
lowerback 4.43078 -1.00775 -0.230221
upperback 2.18818 -1.33852 2.12664
thorax -0.180084 -0.682295 2.37176
lowerneck -14.3823 1.62401 -0.767684
upperneck 17.3532 2.39776 -0.0238026
head 7.71406 1.0842 0.376315
rclavicle -2.127e-014 -1.66979e-014
rhumerus -27.6546 -23.5778 -77.3521
rradius 18.8373
rwrist 47.6901
rhand -21.2125 -26.7293
rfingers 7.12502
rthumb 5.1692 -56.6462
lclavicle -2.127e-014 -1.66979e-014
lhumerus -14.4047 -2.64935 90.4582
lradius 17.9749
lwrist 4.11194
lhand -27.035 -8.81461
lfingers 7.12502
lthumb -0.453898 21.1646
rfemur -23.6563 0.0836913 20.1078
rtibia 26.6955
rfoot -11.8024 -2.27985
rtoes 4.66437
lfemur -23.9517 9.20251 -19.7288
ltibia 24.3136
lfoot -8.2734 3.59417
ltoes -10.0397
506
root 0.0815342 17.6107 9.44108 9.80894 -3.14567 -1.55539
lowerback 4.25276 -0.993506 -0.210197
upperback 2.14852 -1.31986 2.14528
thorax -0.122341 -0.673044 2.37557
lowerneck -14.3611 1.60452 -0.763822
upperneck 17.2709 2.37186 -0.036202
head 7.68349 1.07173 0.368041
rclavicle -1.5704e-014 -1.59028e-014
rhumerus -27.3787 -23.384 -77.5437
rradius 18.9202
rwrist 47.4456
rhand -21.3232 -26.8698
rfingers 7.12502
rthumb 5.06227 -56.7893
lclavicle -1.5704e-014 -1.59028e-014
lhumerus -14.6209 -2.96023 90.682
lradius 18.0663
lwrist 4.13475
lhand -26.9113 -8.58357
lfingers 7.12502
lthumb -0.334458 21.3959
rfemur -23.3598 0.0893796 20.1376
rtibia 26.4465
rfoot -11.8148 -2.30328
rtoes 4.72405
lfemur -23.6926 9.15255 -19.6648
ltibia 24.1314
lfoot -8.29444 3.65979
ltoes -10.0562
507
root 0.0797626 17.6169 9.4742 9.78173 -3.12059 -1.59419
lowerback 4.07757 -0.976926 -0.181882
upperback 2.11089 -1.29788 2.1663
thorax -0.0643338 -0.662093 2.37718
lowerneck -14.3224 1.57908 -0.770504
upperneck 17.1667 2.33876 -0.0431692
head 7.64244 1.05587 0.362213
rclavicle -1.8487e-014 2.38542e-015
rhumerus -27.1002 -23.1349 -77.7502
rradius 19.0252
rwrist 47.1253
rhand -21.4603 -27.0248
rfingers 7.12502
rthumb 4.92993 -56.9474
lclavicle -1.8487e-014 2.38542e-015
lhumerus -14.8431 -3.32128 90.9146
lradius 18.1755
lwrist 4.24619
lhand -26.8329 -8.40056
lfingers 7.12502
lthumb -0.258688 21.579
rfemur -23.0689 0.0878056 20.1801
rtibia 26.2078
rfoot -11.831 -2.31819
rtoes 4.79145
lfemur -23.44 9.10377 -19.5898
ltibia 23.9623
lfoot -8.31679 3.72779
ltoes -10.0758
508
root 0.0779437 17.6225 9.50672 9.75064 -3.10161 -1.62716
lowerback 3.90577 -0.957627 -0.160079
upperback 2.0775 -1.27268 2.18564
thorax -0.00384154 -0.6496 2.38072
lowerneck -14.2953 1.55304 -0.774603
upperneck 17.0617 2.30522 -0.0545357
head 7.60331 1.03953 0.354614
rclavicle -3.37934e-015 3.57812e-015
rhumerus -26.8179 -22.8419 -77.9697
rradius 19.1529
rwrist 46.7315
rhand -21.6103 -27.1922
rfingers 7.12502
rthumb 4.78506 -57.1182
lclavicle -3.37934e-015 3.57812e-015
lhumerus -15.066 -3.7216 91.1548
lradius 18.3
lwrist 4.43859
lhand -26.8003 -8.29175
lfingers 7.12502
lthumb -0.227241 21.6879
rfemur -22.7836 0.0749619 20.2189
rtibia 25.9793
rfoot -11.8496 -2.32031
rtoes 4.86017
lfemur -23.192 9.05557 -19.521
ltibia 23.8053
lfoot -8.33996 3.80116
ltoes -10.107
509
root 0.0762013 17.6276 9.53865 9.71505 -3.08723 -1.65339
lowerback 3.73866 -0.935607 -0.144436
upperback 2.04671 -1.24414 2.20308
thorax 0.0566831 -0.635487 2.38586
lowerneck -14.2537 1.519 -0.793317
upperneck 16.9393 2.26171 -0.055638
head 7.5557 1.01863 0.351508
rclavicle -1.26228e-014 1.19271e-014
rhumerus -26.5389 -22.5154 -78.1966
rradius 19.2984
rwrist 46.271
rhand -21.7833 -27.3568
rfingers 7.12502
rthumb 4.618 -57.2865
lclavicle -1.26228e-014 1.19271e-014
lhumerus -15.2921 -4.15146 91.4015
lradius 18.4331
lwrist 4.68519
lhand -26.7814 -8.21696
lfingers 7.12502
lthumb -0.208934 21.7627
rfemur -22.5039 0.0457001 20.2527
rtibia 25.7632
rfoot -11.8727 -2.30517
rtoes 4.9269
lfemur -22.9472 9.00957 -19.4606
ltibia 23.6594
lfoot -8.36473 3.87833
ltoes -10.1558
510
root 0.0746989 17.6323 9.5701 9.6708 -3.07518 -1.6844
lowerback 3.58353 -0.91284 -0.120516
upperback 2.0186 -1.21434 2.22145
thorax 0.1131 -0.620663 2.38759
lowerneck -14.228 1.48512 -0.814524
upperneck 16.8274 2.21865 -0.0536795
head 7.51433 0.997948 0.350123
rclavicle 1.19271e-015 8.34896e-015
rhumerus -26.2566 -22.1622 -78.4296
rradius 19.4559
rwrist 45.754
rhand -21.966 -27.5271
rfingers 7.12502
rthumb 4.44156 -57.4605
lclavicle 1.19271e-015 8.34896e-015
lhumerus -15.5267 -4.5967 91.6521
lradius 18.5817
lwrist 4.96911
lhand -26.7769 -8.15487
lfingers 7.12502
lthumb -0.204633 21.8248
rfemur -22.2237 -0.0015298 20.2933
rtibia 25.5598
rfoot -11.9013 -2.27024
rtoes 4.98016
lfemur -22.6991 8.96458 -19.3949
ltibia 23.5237
lfoot -8.39083 3.95956
ltoes -10.2144
511
root 0.0733035 17.6364 9.60088 9.6205 -3.0708 -1.71392
lowerback 3.43889 -0.887222 -0.0964515
upperback 1.99231 -1.18074 2.23785
thorax 0.165341 -0.603905 2.38742
lowerneck -14.2005 1.44731 -0.851164
upperneck 16.7141 2.17051 -0.0355094
head 7.47187 0.975403 0.356052
rclavicle -1.11319e-014 2.10712e-014
rhumerus -25.9726 -21.8058 -78.6633
rradius 19.6178
rwrist 45.2061
rhand -22.1501 -27.6894
rfingers 7.12502
rthumb 4.26387 -57.6265
lclavicle -1.11319e-014 2.10712e-014
lhumerus -15.7645 -5.05149 91.9023
lradius 18.7369
lwrist 5.26851
lhand -26.7747 -8.10613
lfingers 7.12502
lthumb -0.202444 21.8735
rfemur -21.9477 -0.0562555 20.3324
rtibia 25.368
rfoot -11.9323 -2.21883
rtoes 5.03206
lfemur -22.4515 8.92477 -19.3318
ltibia 23.3985
lfoot -8.41921 4.04506
ltoes -10.2745
512
root 0.0719782 17.6401 9.63078 9.56573 -3.07574 -1.745
lowerback 3.30536 -0.858184 -0.068703
upperback 1.96681 -1.14245 2.25249
thorax 0.211914 -0.584723 2.38354
lowerneck -14.1826 1.41072 -0.887776
upperneck 16.6102 2.12366 -0.0142969
head 7.4342 0.953654 0.363278
rclavicle -8.34896e-015 -1.66979e-014
rhumerus -25.6858 -21.4495 -78.8965
rradius 19.7796
rwrist 44.6354
rhand -22.3298 -27.85
rfingers 7.12502
rthumb 4.09034 -57.7905
lclavicle -8.34896e-015 -1.66979e-014
lhumerus -16.0095 -5.50375 92.1506
lradius 18.8982
lwrist 5.56197
lhand -26.7703 -8.05843
lfingers 7.12502
lthumb -0.198194 21.9212
rfemur -21.6775 -0.109885 20.3725
rtibia 25.1858
rfoot -11.9631 -2.15946
rtoes 5.06412
lfemur -22.2074 8.88909 -19.2676
ltibia 23.2844
lfoot -8.44775 4.13739
ltoes -10.3395
513
root 0.0706241 17.6433 9.65994 9.50524 -3.0906 -1.77545
lowerback 3.18226 -0.825367 -0.0392262
upperback 1.9434 -1.09907 2.2638
thorax 0.254512 -0.562945 2.37543
lowerneck -14.1589 1.3691 -0.936655
upperneck 16.5052 2.07033 0.018944
head 7.39499 0.929181 0.375737
rclavicle 5.46658e-015 3.97569e-016
rhumerus -25.3968 -21.1017 -79.1267
rradius 19.9401
rwrist 44.0578
rhand -22.4966 -28.0161
rfingers 7.12502
rthumb 3.9292 -57.9596
lclavicle 5.46658e-015 3.97569e-016
lhumerus -16.2535 -5.95318 92.3927
lradius 19.056
lwrist 5.84177
lhand -26.7731 -8.02977
lfingers 7.12502
lthumb -0.200964 21.9499
rfemur -21.4125 -0.157739 20.4108
rtibia 25.0162
rfoot -11.9963 -2.09579
rtoes 5.08252
lfemur -21.9617 8.86131 -19.2044
ltibia 23.1759
lfoot -8.47702 4.23232
ltoes -10.4077
